<svg width="119" height="23" viewBox="0 0 119 23" fill="none" xmlns="http://www.w3.org/2000/svg">
<g id="Group 469280">
<path id="Vector" d="M111.196 5.59766C102.777 5.59766 102.785 13.9588 102.785 13.9588C102.785 13.9588 102.207 22.2779 111.197 22.2779C111.197 22.2779 118.688 22.7033 118.688 16.4911H114.835C114.835 16.4911 114.963 18.8306 111.325 18.8306C111.325 18.8306 107.472 19.0859 107.472 15.0444H118.817C118.817 15.0444 120.055 5.59766 111.196 5.59766ZM114.619 12.1399H107.429C107.429 12.1399 107.899 8.78595 111.281 8.78595C114.664 8.78595 114.62 12.1399 114.62 12.1399H114.619Z" fill="#14133B"/>
<path id="Vector_2" d="M14.3719 9.99769C14.3719 9.99769 17.7122 9.75102 17.7122 5.85731C17.7122 1.9636 14.9795 0.0625 11.5179 0.0625C11.5179 0.0625 11.5173 0.0625 11.5166 0.0625H5.14449H0.125V21.8241H4.95792V21.8253H11.5166C11.5166 21.8253 18.4709 22.043 18.4709 15.4012C18.4709 15.4012 18.7744 9.99769 14.3719 9.99769ZM10.6982 3.93024H11.5179C11.5179 3.93024 13.0665 3.93024 13.0665 6.19425C13.0665 8.45827 12.1554 8.78594 11.1236 8.78594C11.1161 8.78594 11.1087 8.78717 11.1012 8.78717H5.14511V3.93024H10.6988H10.6982ZM11.0981 17.9576H11.0166C10.9258 17.9576 10.8487 17.9551 10.789 17.9551C10.7791 17.9551 10.7703 17.9564 10.761 17.9576H5.14449V12.1412H11.5166V12.1387L11.5179 12.1399C11.5179 12.1399 13.8252 12.1102 13.8252 15.1285C13.8252 17.7653 11.9706 17.9527 11.0975 17.9576H11.0981Z" fill="#14133B"/>
<path id="Vector_3" d="M27.7464 5.59766C19.3275 5.59766 19.3356 13.9588 19.3356 13.9588C19.3356 13.9588 18.7579 22.2779 27.7464 22.2779C27.7464 22.2779 35.2374 22.7033 35.2374 16.4911H31.3846C31.3846 16.4911 31.5127 18.8306 27.8745 18.8306C27.8745 18.8306 24.0218 19.0859 24.0218 15.0444H35.3649C35.3649 15.0444 36.6069 5.59766 27.7464 5.59766ZM31.1701 12.1399H23.9795C23.9795 12.1399 24.4503 8.78595 27.8322 8.78595C31.2142 8.78595 31.1707 12.1399 31.1707 12.1399H31.1701Z" fill="#14133B"/>
<path id="Vector_4" d="M32.0698 1.34375H23.0371V4.02384H32.0698V1.34375Z" fill="#14133B"/>
<path id="Vector_5" d="M51.7578 10.9622V10.7489H51.754C51.6701 8.16151 50.073 5.5995 46.4074 5.5995C43.6144 5.5995 42.1156 7.35408 41.5272 8.26105V0.0625H37.0762V21.8136H41.5272V13.003C41.5272 11.0889 41.9974 9.08826 44.5659 9.08826C47.3359 9.08826 47.3359 10.7482 47.3359 10.7482V10.747H47.3372V11.6527L47.3925 11.6657V21.8136H51.7584V10.9659C51.7584 10.9659 51.7584 10.9646 51.7584 10.964C51.7584 10.9634 51.7584 10.9628 51.7584 10.9622H51.7578Z" fill="#14133B"/>
<path id="Vector_6" d="M97.4781 15.6561C97.4781 15.6561 97.5913 18.8796 94.5768 18.8796C91.5624 18.8796 90.7657 15.6678 90.7657 13.8255C90.7657 11.9831 91.3908 8.87084 94.6334 8.87084C97.8761 8.87084 97.7617 11.6412 97.7617 11.6412H101.801C101.801 11.6412 102.085 5.60156 94.6906 5.60156C87.2967 5.60156 86.5 11.5546 86.5 13.9442C86.5 16.3337 87.7513 22.3659 94.5775 22.3659C101.403 22.3647 102.085 16.8994 102.085 15.6555H97.4775L97.4781 15.6561Z" fill="#14133B"/>
<path id="Vector_7" d="M84.8586 10.9603V10.747H84.8549C84.7709 8.15966 83.1726 5.59766 79.5083 5.59766C76.7134 5.59766 75.2145 7.35409 74.6268 8.26106V5.83073H70.1758V21.8124H74.6268V13.1755C74.6275 13.1273 74.6281 13.0698 74.6281 13.0018C74.6281 11.0877 75.0982 9.08703 77.6668 9.08703C80.4368 9.08703 80.4368 10.747 80.4368 10.747V11.6515L80.4934 11.6651V21.813H84.8592V10.9653C84.8592 10.9653 84.8592 10.964 84.8592 10.9634C84.8592 10.9628 84.8592 10.9622 84.8592 10.9615L84.8586 10.9603Z" fill="#14133B"/>
<path id="Vector_8" d="M67.8581 18.8079V9.48847C67.8581 9.48847 68.3848 5.60156 61.3398 5.60156C54.2947 5.60156 53.8432 9.11134 53.8053 11.2084H58.5144C58.5144 11.2084 58.3266 8.4356 61.3025 8.4356C61.3025 8.4356 63.8268 8.2359 63.8268 10.7509C63.8268 10.7509 63.8268 12.4041 61.5288 12.5543C59.2309 12.7046 53.3911 12.6681 53.3911 17.3859C53.3911 17.3859 53.2399 22.3665 58.6089 22.3665C58.6089 22.3665 62.2826 22.4413 63.8268 20.194V21.815H68.6859C68.6859 21.815 67.8581 21.3922 67.8581 18.8085V18.8079ZM60.2091 19.2951C60.2091 19.2951 57.5722 19.4088 57.5722 17.1609C57.5722 17.1609 57.3464 15.4378 61.0388 14.8765C62.5077 14.764 63.1856 14.6632 63.7889 13.9837V16.8988C63.7889 16.8988 63.412 19.2957 60.2097 19.2957L60.2091 19.2951Z" fill="#14133B"/>
</g>
</svg>
