<svg width="117" height="30" viewBox="0 0 117 30" fill="none" xmlns="http://www.w3.org/2000/svg">
<g id="Group 469282">
<path id="Vector" d="M36.0152 12.3017C37.3385 12.3017 38.4114 11.2288 38.4114 9.90508C38.4114 8.58136 37.3389 7.50841 36.0152 7.50841C34.6915 7.50841 33.619 8.58136 33.619 9.90508C33.619 11.2288 34.6915 12.3017 36.0152 12.3017ZM115.092 20.4907C114.727 20.2343 114.446 20.1918 114.212 20.6896C110.188 29.406 103.406 25.0564 104.08 25.439C105.584 24.751 109.541 21.578 108.943 17.1969C108.58 14.5194 106.282 13.3317 103.842 13.7569C99.5843 14.499 98.0181 19.0915 98.8153 23.1575C98.955 23.8557 99.2039 24.4318 99.4533 24.9958C94.642 28.9086 92.7311 21.4933 92.5141 20.6068C92.5053 20.5596 96.2294 17.4555 97.2649 10.0596C98.3508 2.30792 95.8778 0.896292 93.3492 0.940247C88.6702 1.02168 87.4057 10.798 89.1042 18.9463C88.9617 18.9833 88.2996 19.3502 87.2359 19.3913C86.4702 16.9822 83.199 14.871 82.3431 15.6844C80.2004 17.7197 82.8627 21.6992 84.736 22.011C83.6108 28.9419 76.573 27.2254 77.8833 18.5419C80.175 14.2862 81.9179 7.95813 81.607 4.13781C81.4968 2.7854 80.497 0.973097 78.2354 1.06332C73.8858 1.23543 73.4129 11.0146 73.9228 17.9552C73.8974 17.7845 73.6554 18.7987 71.8732 19.3025C71.4517 16.9623 67.6832 14.6133 66.7962 15.7427C65.1357 17.8566 68.0135 21.6252 69.3765 21.8884C68.2513 28.8193 61.214 27.1028 62.5238 18.4193C64.8155 14.1636 66.5584 7.83552 66.2475 4.01566C66.1373 2.66279 65.1375 0.85095 62.8759 0.940709C58.5263 1.11283 58.0535 10.892 58.5633 17.8331C58.5379 17.6595 58.2899 18.707 56.435 19.203C56.373 16.167 52.5911 14.7743 51.6824 15.7431C50.063 17.4699 52.053 21.0135 53.894 21.8889C52.7688 28.8198 45.7314 27.1033 47.0413 18.4197C49.3329 14.164 51.0758 7.83599 50.7649 4.01612C50.6548 2.66326 49.6549 0.851413 47.3934 0.941172C43.0437 1.11329 42.694 11.3843 43.2038 18.3249C41.7714 24.4632 36.9665 32.1289 37.5906 16.7731C37.6522 15.6959 37.7197 15.2869 37.1825 14.8835C36.78 14.5703 35.8648 14.7211 35.3647 14.7331C34.7567 14.7576 34.6045 15.113 34.4699 15.6511C34.1566 17.0396 34.1007 18.3855 34.0558 20.2219C34.0266 21.081 33.9577 21.4817 33.6269 22.6532C33.2965 23.8243 31.4116 25.9651 30.3793 25.607C28.9474 25.1147 29.4174 21.0727 29.6858 18.2957C29.9093 16.1013 29.1935 15.1157 27.3594 14.7572C26.2856 14.5332 25.6332 14.5675 24.5149 14.2154C23.4572 13.8823 23.218 11.8816 20.9625 12.5484C19.729 12.9134 20.522 15.5271 20.2254 17.4648C18.7675 26.995 15.7347 27.2569 14.3272 22.6273C20.6645 7.10449 16.1603 0.985589 13.5236 0.985589C10.8868 0.985589 7.6383 2.87701 8.96757 14.9797C8.32121 14.7909 8.12272 14.6896 7.41483 14.6896C3.41359 14.6896 0.6875 17.9247 0.6875 21.9148C0.6875 25.9049 3.41406 29.1404 7.41529 29.1404C9.77726 29.1404 11.436 28.0661 12.6921 26.4041C13.5115 27.578 14.5095 29.1585 16.3343 29.0872C21.774 28.8753 23.3559 17.7174 23.5428 17.0951C24.1244 17.1848 24.6745 17.3542 25.2117 17.4439C26.1065 17.5781 26.1713 17.9325 26.1509 18.8324C25.9136 26.4213 27.3141 29.0784 30.4908 29.0784C32.2606 29.0784 33.8383 27.3397 34.9247 26.096C35.7362 27.7714 37.0299 29.0271 38.7649 29.078C42.9692 29.1825 44.5789 22.4816 44.4322 23.3634C44.317 24.0556 45.7962 29.0405 50.1246 29.0585C55.4861 29.0812 56.4827 23.1853 56.6016 22.1975C56.6164 22.0008 56.6229 22.0212 56.6016 22.1975L56.5974 22.2572C58.2996 21.9407 59.1778 21.0278 59.1778 21.0278C59.1778 21.0278 60.5445 29.1497 65.6071 29.0585C70.8645 28.9632 71.856 23.6336 71.986 22.5945C72.0032 22.3479 72.0133 22.3765 71.986 22.5945C71.9851 22.6046 71.9847 22.6148 71.9842 22.625C74.0061 21.8893 74.5377 21.1514 74.5377 21.1514C74.5377 21.1514 75.6241 29.1117 80.9671 29.1816C85.7285 29.2441 87.4931 24.3679 87.5033 22.327C88.3065 22.3358 89.7917 21.8505 89.757 21.8232C89.757 21.8232 91.5013 28.7832 96.3715 29.1409C98.658 29.3088 100.374 27.8542 101.351 27.1907C103.649 29.0516 111.302 31.4288 116.133 23.2367C116.815 22.061 115.349 20.672 115.091 20.4907H115.092ZM7.22235 26.4379C4.88768 26.4379 3.39046 24.2791 3.39046 21.9518C3.39046 19.6245 4.76461 17.4657 7.09928 17.4657C8.15002 17.4657 8.73438 17.5814 9.55239 18.293C9.70091 18.8778 10.1215 20.2265 10.326 20.8386C10.6004 21.658 10.9261 22.3557 11.255 23.115C10.7854 25.0624 9.24518 26.4379 7.22235 26.4379ZM12.9114 18.361C12.8143 18.2064 12.8346 18.3013 12.7259 18.1551C12.2979 16.991 11.4734 14.3926 11.3777 11.4412C11.2699 8.10249 11.826 4.18917 13.4666 4.18917C14.578 4.18917 15.7597 12.1204 12.911 18.361H12.9114ZM45.7837 14.8821C45.5205 12.9009 45.5066 4.06887 47.627 4.31178C48.7976 4.78602 46.8849 13.1202 45.7837 14.8821ZM61.2663 14.8821C61.003 12.9009 60.9891 4.06887 63.1096 4.31178C64.2802 4.78602 62.3675 13.1202 61.2663 14.8821ZM76.6262 15.0052C76.3625 13.0235 76.3491 4.19148 78.4691 4.43485C79.6397 4.90909 77.7269 13.2438 76.6262 15.0052ZM93.5834 3.79496C95.522 3.59416 95.4419 12.0593 91.5508 17.4042C91.0488 15.4725 90.2798 4.45844 93.5834 3.79496ZM101.731 22.011C101.108 18.8657 102.718 16.8004 104.376 16.5736C104.955 16.4811 105.796 16.8568 105.963 17.5587C106.239 18.8819 105.923 20.8446 102.211 23.3347C102.217 23.356 101.87 22.7115 101.732 22.011H101.731Z" fill="#14133B"/>
</g>
</svg>
