<svg width="26" height="27" viewBox="0 0 26 27" fill="none" xmlns="http://www.w3.org/2000/svg">
<g id="Group 469283">
<path id="Vector" d="M9.09581 13.5481C9.09581 11.2269 10.9769 9.34391 13.299 9.34391C15.6212 9.34391 17.5032 11.2259 17.5032 13.5481C17.5032 15.8702 15.6212 17.7522 13.299 17.7522C10.9769 17.7522 9.09581 15.8702 9.09581 13.5481ZM6.82299 13.5481C6.82299 17.1243 9.72188 20.0232 13.2981 20.0232C16.8743 20.0232 19.7732 17.1243 19.7732 13.5481C19.7732 9.97188 16.8743 7.07299 13.2981 7.07299C9.72188 7.07299 6.82299 9.97188 6.82299 13.5481ZM18.5172 6.81592C18.5172 7.65163 19.1945 8.32987 20.0312 8.32987C20.8678 8.32987 21.5451 7.65163 21.5451 6.81592C21.5451 5.98021 20.8678 5.30292 20.0312 5.30292C19.1945 5.30292 18.5172 5.98021 18.5172 6.81592ZM8.20319 23.8128C6.97381 23.7568 6.30506 23.5519 5.86112 23.3793C5.27204 23.1497 4.85276 22.8775 4.41072 22.4364C3.96963 21.9953 3.69548 21.576 3.46782 20.9869C3.29423 20.543 3.09028 19.8742 3.03431 18.6448C2.9736 17.3159 2.96127 16.9165 2.96127 13.549C2.96127 10.1815 2.97455 9.78311 3.03431 8.45319C3.09028 7.22381 3.29613 6.55695 3.46782 6.11112C3.69738 5.52204 3.96963 5.10276 4.41072 4.66072C4.85182 4.21963 5.27109 3.94548 5.86112 3.71782C6.30506 3.54423 6.97381 3.34028 8.20319 3.28431C9.53216 3.2236 9.93152 3.21127 13.2981 3.21127C16.6646 3.21127 17.064 3.22455 18.3939 3.28431C19.6233 3.34028 20.2901 3.54613 20.736 3.71782C21.3251 3.94643 21.7443 4.21963 22.1864 4.66072C22.6275 5.10181 22.9007 5.52204 23.1293 6.11112C23.3029 6.55506 23.5068 7.22381 23.5628 8.45319C23.6235 9.78311 23.6358 10.1815 23.6358 13.549C23.6358 16.9165 23.6235 17.3149 23.5628 18.6448C23.5068 19.8742 23.301 20.543 23.1293 20.9869C22.8997 21.576 22.6275 21.9953 22.1864 22.4364C21.7453 22.8775 21.3251 23.1507 20.736 23.3793C20.292 23.5529 19.6233 23.7568 18.3939 23.8128C17.0649 23.8735 16.6656 23.8858 13.2981 23.8858C9.93057 23.8858 9.53216 23.8735 8.20319 23.8128ZM8.09884 1.01434C6.75659 1.07505 5.8393 1.28848 5.03774 1.59962C4.20867 1.92119 3.50576 2.35375 2.80381 3.05381C2.1028 3.75482 1.67119 4.45772 1.34962 5.28774C1.03753 6.09025 0.825046 7.00659 0.764336 8.34884C0.701729 9.693 0.6875 10.1237 0.6875 13.5481C0.6875 16.9725 0.701729 17.4022 0.764336 18.7473C0.825046 20.0896 1.03848 21.0068 1.34962 21.8084C1.67119 22.6375 2.1028 23.3413 2.80381 24.0423C3.50482 24.7433 4.20772 25.174 5.03774 25.4965C5.84025 25.8086 6.75659 26.0211 8.09884 26.0818C9.44489 26.1425 9.87366 26.1586 13.2981 26.1586C16.7225 26.1586 17.1522 26.1444 18.4973 26.0818C19.8396 26.0211 20.7568 25.8077 21.5584 25.4965C22.3875 25.174 23.0904 24.7424 23.7923 24.0423C24.4933 23.3413 24.924 22.6375 25.2465 21.8084C25.5586 21.0068 25.772 20.0896 25.8318 18.7473C25.8925 17.4012 25.9067 16.9725 25.9067 13.5481C25.9067 10.1237 25.8925 9.69394 25.8318 8.34884C25.7711 7.00659 25.5577 6.0893 25.2465 5.28774C24.924 4.45867 24.4924 3.75576 23.7923 3.05381C23.0913 2.3528 22.3875 1.92119 21.5594 1.59962C20.7568 1.28753 19.8396 1.0741 18.4982 1.01434C17.1541 0.953626 16.7234 0.9375 13.299 0.9375C9.87461 0.9375 9.44489 0.951729 8.09884 1.01434Z" fill="#14133B"/>
</g>
</svg>
