<svg width="86" height="25" viewBox="0 0 86 25" fill="none" xmlns="http://www.w3.org/2000/svg">
<g id="Layer_1" clip-path="url(#clip0_52_12)">
<path id="Vector" d="M5.28006 0.149667C3.55323 0.901654 1.65455 3.02357 1.05497 5.68869C0.295698 9.06474 3.45566 10.4922 3.71494 10.0248C4.02013 9.47459 3.14878 9.28861 2.96917 7.5369C2.73724 5.27462 3.74937 2.74636 5.02281 1.63715C5.25947 1.43117 5.24833 1.71786 5.24833 2.24842C5.24833 3.19727 5.19803 11.7141 5.19803 13.4917C5.19803 15.8968 5.10248 16.6565 4.93064 17.4068C4.75678 18.1672 4.47724 18.6813 4.68892 18.8792C4.92558 19.1006 5.93636 18.5739 6.52143 17.7251C7.22297 16.7071 7.46874 15.4845 7.51263 14.1567C7.56597 12.5562 7.56361 10.0167 7.56597 8.56786C7.568 7.23933 7.58758 3.34886 7.54369 1.01008C7.53289 0.436356 6.00253 -0.165445 5.28006 0.148965V0.149667ZM84.9333 12.785C84.6828 12.785 84.5687 13.0535 84.4742 13.5054C84.1461 15.0764 83.8014 15.4312 83.3568 15.4312C82.8598 15.4312 82.4135 14.6532 82.2987 13.0963C82.2086 11.872 82.2231 9.61776 82.3382 7.37548C82.3618 6.91475 82.2396 6.45892 81.0506 6.01012C80.5391 5.81677 79.7954 5.53289 79.425 6.46173C78.3791 9.08614 77.9696 11.1702 77.8734 12.0162C77.8683 12.0601 77.817 12.0688 77.8076 11.9667C77.7461 11.2888 77.6091 10.0567 77.5918 7.46847C77.5885 6.96352 77.4855 6.53367 76.9494 6.18171C76.6013 5.95327 75.5446 5.54938 75.1641 6.03012C74.8346 6.42313 74.4528 7.48076 74.0561 8.73419C73.7337 9.75286 73.5092 10.442 73.5092 10.442C73.5092 10.442 73.5133 7.69305 73.5173 6.65017C73.519 6.2568 73.2594 6.12556 73.1811 6.10205C72.8289 5.99573 72.1345 5.81817 71.8401 5.81817C71.4765 5.81817 71.3874 6.02942 71.3874 6.33716C71.3874 6.37751 71.33 9.95674 71.33 12.4594C71.33 12.5682 71.33 12.6868 71.3307 12.8127C71.1295 13.963 70.4775 15.5245 69.7682 15.5245C69.0589 15.5245 68.7234 14.8719 68.7234 11.8881C68.7234 10.1476 68.7737 9.39073 68.7983 8.13203C68.8128 7.40707 68.8405 6.84983 68.8388 6.72386C68.8334 6.33646 68.1889 6.141 67.8888 6.06872C67.5873 5.99608 67.3257 5.96766 67.1211 5.97994C66.8318 5.99678 66.6268 6.19434 66.6268 6.46559C66.6268 6.61122 66.6285 6.88773 66.6285 6.88773C66.2558 6.27891 65.6559 5.85502 65.2572 5.7322C64.1826 5.4006 63.0614 5.69465 62.2157 6.92457C61.5436 7.90184 61.1384 9.00894 60.9788 10.5996C60.8623 11.7621 60.9001 12.9415 61.1074 13.9384C60.8569 15.0634 60.392 15.5245 59.8832 15.5245C59.1442 15.5245 58.6084 14.2711 58.6709 12.1029C58.7121 10.6768 58.9866 9.67601 59.2867 8.22818C59.4146 7.61094 59.3107 7.28776 59.05 6.97826C58.811 6.69403 58.3016 6.54911 57.5686 6.72772C57.0467 6.85474 56.3006 6.99195 55.6183 7.09687C55.6183 7.09687 55.6595 6.92598 55.6932 6.6249C55.8708 5.04583 54.2196 5.17391 53.693 5.67816C53.3786 5.97924 53.1646 6.33435 53.0832 6.973C52.9543 7.98641 53.7493 8.46434 53.7493 8.46434C53.4884 9.70584 52.8489 11.3274 52.1889 12.4997C51.8355 13.1279 51.5647 13.5932 51.2156 14.0883C51.2143 13.9044 51.2133 13.7205 51.2129 13.5363C51.2048 10.9266 51.2382 8.87244 51.2531 8.13238C51.2676 7.40742 51.2956 6.86527 51.2939 6.73894C51.2902 6.45541 51.1309 6.34839 50.7997 6.21294C50.507 6.09293 50.1606 6.01012 49.8014 5.98134C49.3483 5.94485 49.0749 6.19434 49.0823 6.49015C49.0837 6.54595 49.0837 6.88843 49.0837 6.88843C48.7109 6.27961 48.111 5.85572 47.7123 5.7329C46.6377 5.4013 45.5166 5.69536 44.6709 6.92527C43.9987 7.90254 43.5588 9.27423 43.4339 10.588C43.3177 11.8127 43.339 12.8531 43.4974 13.7297C43.3265 14.6073 42.8353 15.5252 42.2796 15.5252C41.5696 15.5252 41.1655 14.8726 41.1655 11.8888C41.1655 10.1483 41.2158 9.39143 41.2405 8.13274C41.255 7.40777 41.2827 6.85053 41.281 6.72456C41.2756 6.33716 40.6311 6.14171 40.331 6.06942C40.017 5.99398 39.7463 5.96625 39.5379 5.98204C39.2631 6.00345 39.0704 6.25856 39.0704 6.4491V6.88843C38.6977 6.27961 38.0977 5.85572 37.699 5.7329C36.6244 5.4013 35.5093 5.69992 34.6576 6.92527C34.1019 7.72428 33.6522 8.60997 33.4206 10.5705C33.3537 11.1372 33.324 11.6677 33.3281 12.1636C33.1066 13.5717 32.1282 15.195 31.3275 15.195C30.8592 15.195 30.4129 14.2507 30.4129 12.2383C30.4129 9.55741 30.5726 5.74097 30.5996 5.37287C30.5996 5.37287 31.611 5.35498 31.8069 5.35252C32.3116 5.34691 32.7683 5.35919 33.4402 5.3234C33.7771 5.3055 34.1019 4.04856 33.7541 3.89276C33.5965 3.82223 32.4824 3.76047 32.0408 3.751C31.6694 3.74222 30.6354 3.66257 30.6354 3.66257C30.6354 3.66257 30.7282 1.12904 30.7498 0.861651C30.768 0.638476 30.4905 0.523731 30.3312 0.453901C29.944 0.283712 29.5976 0.202303 29.1871 0.114226C28.6199 -0.00753815 28.3623 0.111418 28.3123 0.609351C28.2367 1.3645 28.1975 3.5766 28.1975 3.5766C27.7813 3.5766 26.3593 3.49203 25.943 3.49203C25.5561 3.49203 25.1385 5.22128 25.6736 5.24269C26.2891 5.2676 27.3613 5.28901 28.0723 5.31112C28.0723 5.31112 28.0406 9.19071 28.0406 10.3887C28.0406 10.5161 28.0409 10.6389 28.0419 10.7578C27.6506 12.8777 26.2722 14.0227 26.2722 14.0227C26.5683 12.6204 25.9636 11.567 24.8745 10.6757C24.4731 10.3473 23.6811 9.72549 22.7949 9.04368C22.7949 9.04368 23.308 8.51803 23.7635 7.46005C24.0859 6.71087 24.1001 5.85326 23.308 5.66413C22.0002 5.35147 20.9215 6.34979 20.5998 7.41584C20.3506 8.24187 20.4833 8.85455 20.9718 9.49109C21.0076 9.53776 21.0461 9.58513 21.0859 9.63285C20.7905 10.2245 20.3851 11.0207 20.0414 11.6383C19.0877 13.3531 18.3676 14.7094 17.823 14.7094C17.3878 14.7094 17.3939 13.3324 17.3939 12.0432C17.3939 10.9319 17.4729 9.26089 17.5361 7.53058C17.557 6.95826 17.2815 6.63262 16.82 6.33716C16.5398 6.15785 15.9412 5.80519 15.5948 5.80519C15.0763 5.80519 13.5797 5.87853 12.1658 10.1297C11.9876 10.6656 11.6375 11.6418 11.6375 11.6418L11.6675 6.52945C11.6675 6.40945 11.6061 6.29365 11.4653 6.21434C11.2269 6.07995 10.5906 5.80484 10.0247 5.80484C9.75532 5.80484 9.62062 5.93502 9.62062 6.19504L9.57133 14.1936C9.57133 14.8013 9.58652 15.5101 9.64459 15.8203C9.70198 16.1309 9.7955 16.3832 9.91096 16.5337C10.0264 16.6836 10.1598 16.798 10.3799 16.8453C10.5848 16.8892 11.7063 17.039 11.7647 16.5934C11.8346 16.0593 11.8373 15.4821 12.4261 13.3282C13.343 9.97498 14.5385 8.33907 15.1006 7.75797C15.1988 7.65656 15.3109 7.65024 15.3055 7.81657C15.2815 8.55171 15.1971 10.3887 15.1404 11.9492C14.9882 16.1256 15.7191 16.8997 16.7636 16.8997C17.5627 16.8997 18.6893 16.0744 19.8969 13.9851C20.6498 12.6833 21.3807 11.4067 21.906 10.4862C22.2719 10.8386 22.6825 11.2175 23.093 11.6225C24.0467 12.5633 24.36 13.4574 24.1521 14.3058C23.993 14.9543 23.3948 15.6224 22.3293 14.9729C22.0187 14.7834 21.8861 14.6371 21.5741 14.4234C21.4063 14.3086 21.1504 14.2743 20.9968 14.3946C20.5978 14.7073 20.3699 15.1049 20.2396 15.5968C20.113 16.0758 20.5745 16.3288 21.0525 16.5502C21.4644 16.7408 22.3496 16.9134 22.9141 16.9331C25.1135 17.0096 26.8758 15.8291 28.1023 12.7843C28.3221 15.414 29.2563 16.9018 30.8801 16.9018C31.9655 16.9018 33.054 15.4435 33.53 14.0086C33.6667 14.5936 33.8689 15.102 34.1299 15.5319C35.3811 17.5921 37.8081 17.1489 39.0272 15.3993C39.4039 14.8585 39.4613 14.6641 39.4613 14.6641C39.6392 16.3162 40.9191 16.8934 41.652 16.8934C42.4727 16.8934 43.3201 16.4902 43.9143 15.1003C43.9825 15.2487 44.0588 15.3926 44.1428 15.5319C45.394 17.5921 47.821 17.1489 49.0401 15.3993C49.0975 15.3171 49.1475 15.2428 49.191 15.1757L49.2268 16.2611L48.1046 17.331C46.2232 19.1231 44.7937 20.4828 44.6888 22.0657C44.5551 24.0841 46.1293 24.8344 47.3217 24.9326C48.586 25.0368 49.6708 24.3105 50.3365 23.2935C50.9222 22.3987 51.3058 20.4723 51.2777 18.5697C51.2666 17.8079 51.248 16.839 51.2335 15.8007C51.8939 15.0034 52.6383 13.996 53.3229 12.8166C54.0697 11.5312 54.8698 9.8055 55.2793 8.46223C55.2793 8.46223 55.9745 8.46855 56.7165 8.41802C56.9539 8.40188 57.0217 8.45206 56.9782 8.63313C56.9252 8.85139 56.0406 12.3973 56.8478 14.7589C57.4002 16.3758 58.6456 16.8959 59.3843 16.8959C60.2485 16.8959 61.0753 16.2176 61.5186 15.2098C61.5719 15.3221 61.628 15.4308 61.6887 15.5312C62.9399 17.5914 65.3585 17.1457 66.586 15.3986C66.8628 15.0045 67.0201 14.6634 67.0201 14.6634C67.2835 16.373 68.5627 16.9015 69.2956 16.9015C70.0285 16.9015 70.7831 16.5762 71.3708 15.1308C71.3955 15.7674 71.434 16.2874 71.4951 16.4516C71.5322 16.552 71.7493 16.678 71.907 16.7387C72.6051 17.0075 73.3171 16.8804 73.5808 16.8253C73.7634 16.7871 73.9056 16.6348 73.9251 16.2418C73.9761 15.2098 73.9447 13.4763 74.2459 12.1878C74.7509 10.0255 75.2222 9.1865 75.4457 8.77138C75.571 8.53873 75.7121 8.50048 75.7171 8.74647C75.7276 9.24475 75.7512 10.7077 75.9474 12.6734C76.0912 14.1192 76.283 14.9736 76.4305 15.2442C76.8515 16.0176 77.3717 16.054 77.7951 16.054C78.0645 16.054 78.6279 15.9768 78.5776 15.4845C78.553 15.2445 78.5962 13.7619 79.0942 11.632C79.4193 10.2406 79.9618 8.98403 80.1573 8.52434C80.2295 8.35486 80.263 8.48855 80.2619 8.51452C80.2207 9.47249 80.1283 12.6061 80.5037 14.3202C81.0128 16.6422 82.4851 16.9018 82.9982 16.9018C84.0937 16.9018 84.9894 16.0358 85.2912 13.7567C85.3648 13.2075 85.2571 12.7843 84.9344 12.7843L84.9333 12.785ZM39.0471 11.3761C38.9843 12.5822 38.7577 13.5903 38.3945 14.3227C37.7372 15.648 36.4367 16.0684 35.8635 14.1532C35.4499 12.7724 35.5907 10.8891 35.7629 9.87182C36.0181 8.36223 36.6572 7.29197 37.6548 7.39338C38.6798 7.4976 39.1777 8.86648 39.0471 11.3761ZM49.0597 11.3937C49.0013 12.5327 48.717 13.6767 48.4071 14.323C47.7673 15.6575 46.4301 16.0747 45.8761 14.1535C45.4973 12.8408 45.5878 11.1417 45.7755 10.0715C46.0189 8.68225 46.6084 7.39373 47.6674 7.39373C48.6971 7.39373 49.2049 8.56786 49.0597 11.3937ZM49.321 19.1638C49.3072 21.2415 48.9925 23.063 48.318 23.5922C47.3612 24.3424 46.0753 23.7795 46.3413 22.2636C46.577 20.9221 47.6914 19.5519 49.3237 17.878C49.3237 17.878 49.3271 18.2598 49.321 19.1641V19.1638ZM66.6056 11.406C66.5499 12.6562 66.2835 13.6339 65.953 14.323C65.3132 15.6575 63.9854 16.0719 63.422 14.1535C63.1148 13.1079 63.1006 11.3611 63.3214 9.90199C63.5462 8.41557 64.1738 7.29267 65.2133 7.39408C66.2386 7.49409 66.7183 8.86718 66.6056 11.4063V11.406Z" fill="#14133B"/>
</g>
<defs>
<clipPath id="clip0_52_12">
<rect width="84.375" height="24.8798" fill="white" transform="translate(0.9375 0.0625)"/>
</clipPath>
</defs>
</svg>
