<svg width="117" height="31" viewBox="0 0 117 31" fill="none" xmlns="http://www.w3.org/2000/svg">
<g id="Group 469289">
<path id="Vector" d="M111.977 25.903H107.636V19.1038C107.636 17.4826 107.607 15.3955 105.378 15.3955C103.149 15.3955 102.77 17.1618 102.77 18.9857V25.9025H98.429V11.9209H102.597V13.8314H102.656C103.505 12.3782 105.086 11.5105 106.768 11.5729C111.168 11.5729 111.979 14.4673 111.979 18.2327L111.977 25.903H111.977ZM93.5302 10.0099C92.1389 10.0099 91.0104 8.88231 91.0104 7.49102C91.0104 6.09973 92.138 4.97121 93.5292 4.97121C94.9205 4.97121 96.049 6.09876 96.049 7.49005C96.049 8.88134 94.9215 10.0099 93.5302 10.0099ZM95.7011 25.903H91.355V11.9209H95.7011V25.903ZM114.142 0.939139H89.1734C87.9931 0.925589 87.0257 1.87118 87.0112 3.05099V28.1227C87.0253 29.3035 87.9926 30.2496 89.1734 30.237H114.142C115.325 30.252 116.296 29.3059 116.312 28.1227V3.04954C116.296 1.86731 115.324 0.922202 114.142 0.937688M75.1947 15.2958C73.0238 15.2958 71.7216 16.7451 71.7216 18.857C71.7216 20.9688 73.0233 22.4197 75.1947 22.4197C77.3661 22.4197 78.6712 20.9727 78.6712 18.857C78.6712 16.7413 77.3685 15.2958 75.1947 15.2958ZM82.668 25.8947H78.6712V24.0403H78.6122C77.596 25.4074 75.9995 26.2219 74.2961 26.2417C70.1246 26.2417 67.3769 23.2312 67.3769 18.9736C67.3769 15.0635 69.8086 11.4732 73.8059 11.4732C75.6027 11.4732 77.2809 11.9649 78.2652 13.3277H78.3223V5.26834H82.668V25.8947ZM61.8021 17.2804C61.8359 15.8431 60.6982 14.6507 59.261 14.6168C59.2194 14.6159 59.1777 14.6159 59.1366 14.6168C57.5585 14.5186 56.1929 15.7042 56.0685 17.2804H61.8021ZM65.4799 23.4761C64.0189 25.2477 61.8393 26.2688 59.5431 26.2577C55.2018 26.2577 51.7258 23.3599 51.7258 18.872C51.7258 14.3841 55.2013 11.4878 59.5431 11.4878C63.6008 11.4878 66.1458 14.3821 66.1458 18.872V20.2333H56.069C56.3284 21.8298 57.724 22.9907 59.3408 22.9554C60.5966 22.9476 61.7624 22.3045 62.4389 21.2466L65.4799 23.4756V23.4761ZM22.32 11.9175H26.489V13.828H26.548C27.3964 12.3743 28.9769 11.5062 30.659 11.5695C35.0618 11.5695 35.8718 14.4663 35.8718 18.2293V25.8967H31.5305V19.099C31.5305 17.4764 31.5005 15.3906 29.2692 15.3906C27.0378 15.3906 26.6642 17.1574 26.6642 18.9809V25.8947H22.3229L22.3195 11.9175H22.32ZM38.0737 5.2698H42.415V17.6002L47.3356 11.9097H52.6583L46.96 18.3827L52.5383 25.9034H47.0815L42.4726 18.9925H42.4155V25.903H38.0742L38.0732 5.27028L38.0737 5.2698ZM15.5711 11.916H19.9124V25.8976H15.5711V11.916ZM17.742 4.96492C19.1328 4.96492 20.2604 6.09295 20.2599 7.48376C20.2599 8.87456 19.1319 10.0021 17.7411 10.0016C16.3503 10.0016 15.2232 8.87408 15.2232 7.48327C15.2232 6.09247 16.3507 4.96492 17.7415 4.96492M0.6875 5.27318H5.20689V21.7349H13.5735V25.9054H0.6875V5.27318Z" fill="#14133B"/>
</g>
</svg>
