<svg width="132" height="40" viewBox="0 0 132 40" fill="none" xmlns="http://www.w3.org/2000/svg">
<g clip-path="url(#clip0_8019_3363)">
<path d="M17.5886 8.53906L7.5625 14.2669L11.7487 16.7087L17.5016 13.4228L23.2544 16.7087V23.285L17.5016 26.5709L11.7487 23.285L7.5625 25.7268L17.5886 31.459L27.6147 25.7268V14.2669L17.5886 8.53906Z" fill="#0055FE"/>
<path d="M17.5886 8.53906L7.5625 14.2669L11.7487 16.7087L17.5016 13.4228L23.2544 16.7087V23.285L17.5016 26.5709L11.7487 23.285L7.5625 25.7268L17.5886 31.459L27.6147 25.7268V14.2669L17.5886 8.53906Z" fill="#0055FE"/>
<path d="M17.5886 8.53906L7.5625 14.2669L11.7487 16.7087L17.5016 13.4228L23.2544 16.7087V23.285L17.5016 26.5709L11.7487 23.285L7.5625 25.7268L17.5886 31.459L27.6147 25.7268V14.2669L17.5886 8.53906Z" fill="#0055FE"/>
<path d="M17.5022 35.0388L4.33855 27.5194V12.4806L17.4978 4.96124L30.6571 12.4806L34.9956 10L17.5022 0L0 10V30L17.5022 40L35.0044 30L30.6614 27.5194L17.5022 35.0388Z" fill="#0055FE"/>
</g>
<path d="M51.94 31.8C50.4 31.8 48.97 31.53 47.65 30.99C46.33 30.43 45.17 29.66 44.17 28.68C43.19 27.68 42.43 26.52 41.89 25.2C41.37 23.88 41.11 22.46 41.11 20.94C41.11 19.42 41.37 18 41.89 16.68C42.43 15.36 43.19 14.21 44.17 13.23C45.17 12.25 46.32 11.48 47.62 10.92C48.94 10.36 50.38 10.08 51.94 10.08C53.62 10.08 55.1 10.36 56.38 10.92C57.66 11.46 58.79 12.21 59.77 13.17L57.01 15.93C56.43 15.29 55.72 14.79 54.88 14.43C54.04 14.07 53.06 13.89 51.94 13.89C50.96 13.89 50.06 14.06 49.24 14.4C48.44 14.72 47.74 15.2 47.14 15.84C46.54 16.46 46.08 17.21 45.76 18.09C45.44 18.95 45.28 19.9 45.28 20.94C45.28 22 45.44 22.96 45.76 23.82C46.08 24.68 46.54 25.43 47.14 26.07C47.74 26.69 48.44 27.17 49.24 27.51C50.06 27.85 50.96 28.02 51.94 28.02C53.12 28.02 54.13 27.84 54.97 27.48C55.83 27.12 56.55 26.61 57.13 25.95L59.89 28.71C58.91 29.69 57.77 30.45 56.47 30.99C55.17 31.53 53.66 31.8 51.94 31.8ZM68.7355 31.8C67.2755 31.8 65.9555 31.47 64.7755 30.81C63.6155 30.13 62.6855 29.22 61.9855 28.08C61.3055 26.92 60.9655 25.63 60.9655 24.21C60.9655 22.79 61.3055 21.52 61.9855 20.4C62.6655 19.26 63.5955 18.36 64.7755 17.7C65.9555 17.02 67.2655 16.68 68.7055 16.68C70.1855 16.68 71.5055 17.02 72.6655 17.7C73.8455 18.36 74.7755 19.26 75.4555 20.4C76.1355 21.52 76.4755 22.79 76.4755 24.21C76.4755 25.63 76.1355 26.92 75.4555 28.08C74.7755 29.22 73.8455 30.13 72.6655 30.81C71.5055 31.47 70.1955 31.8 68.7355 31.8ZM68.7055 28.14C69.4455 28.14 70.0955 27.98 70.6555 27.66C71.2355 27.32 71.6755 26.86 71.9755 26.28C72.2955 25.68 72.4555 25 72.4555 24.24C72.4555 23.48 72.2955 22.81 71.9755 22.23C71.6555 21.65 71.2155 21.2 70.6555 20.88C70.0955 20.54 69.4455 20.37 68.7055 20.37C67.9855 20.37 67.3455 20.54 66.7855 20.88C66.2255 21.2 65.7855 21.65 65.4655 22.23C65.1455 22.81 64.9855 23.48 64.9855 24.24C64.9855 25 65.1455 25.68 65.4655 26.28C65.7855 26.86 66.2255 27.32 66.7855 27.66C67.3455 27.98 67.9855 28.14 68.7055 28.14ZM83.9856 31.83C83.1656 31.83 82.3556 31.72 81.5556 31.5C80.7756 31.28 80.0556 30.98 79.3956 30.6C78.7356 30.2 78.1656 29.72 77.6856 29.16L80.0256 26.79C80.5256 27.35 81.1056 27.77 81.7656 28.05C82.4256 28.33 83.1556 28.47 83.9556 28.47C84.5956 28.47 85.0756 28.38 85.3956 28.2C85.7356 28.02 85.9056 27.75 85.9056 27.39C85.9056 26.99 85.7256 26.68 85.3656 26.46C85.0256 26.24 84.5756 26.06 84.0156 25.92C83.4556 25.76 82.8656 25.59 82.2456 25.41C81.6456 25.21 81.0656 24.96 80.5056 24.66C79.9456 24.34 79.4856 23.91 79.1256 23.37C78.7856 22.81 78.6156 22.09 78.6156 21.21C78.6156 20.29 78.8356 19.49 79.2756 18.81C79.7356 18.13 80.3856 17.6 81.2256 17.22C82.0656 16.84 83.0556 16.65 84.1956 16.65C85.3956 16.65 86.4756 16.86 87.4356 17.28C88.4156 17.7 89.2256 18.33 89.8656 19.17L87.4956 21.54C87.0556 21 86.5556 20.61 85.9956 20.37C85.4556 20.13 84.8656 20.01 84.2256 20.01C83.6456 20.01 83.1956 20.1 82.8756 20.28C82.5756 20.46 82.4256 20.71 82.4256 21.03C82.4256 21.39 82.5956 21.67 82.9356 21.87C83.2956 22.07 83.7556 22.25 84.3156 22.41C84.8756 22.55 85.4556 22.72 86.0556 22.92C86.6756 23.1 87.2556 23.36 87.7956 23.7C88.3556 24.04 88.8056 24.49 89.1456 25.05C89.5056 25.61 89.6856 26.33 89.6856 27.21C89.6856 28.63 89.1756 29.76 88.1556 30.6C87.1356 31.42 85.7456 31.83 83.9856 31.83ZM92.3357 31.5V17.01H96.2957V31.5H92.3357ZM94.3157 14.67C93.6757 14.67 93.1457 14.46 92.7257 14.04C92.3057 13.6 92.0957 13.06 92.0957 12.42C92.0957 11.8 92.3057 11.27 92.7257 10.83C93.1457 10.39 93.6757 10.17 94.3157 10.17C94.9757 10.17 95.5057 10.39 95.9057 10.83C96.3257 11.27 96.5357 11.8 96.5357 12.42C96.5357 13.06 96.3257 13.6 95.9057 14.04C95.5057 14.46 94.9757 14.67 94.3157 14.67ZM106.587 31.8C105.127 31.8 103.807 31.47 102.627 30.81C101.467 30.13 100.537 29.22 99.8371 28.08C99.1571 26.92 98.8171 25.63 98.8171 24.21C98.8171 22.79 99.1571 21.52 99.8371 20.4C100.517 19.26 101.447 18.36 102.627 17.7C103.807 17.02 105.117 16.68 106.557 16.68C108.037 16.68 109.357 17.02 110.517 17.7C111.697 18.36 112.627 19.26 113.307 20.4C113.987 21.52 114.327 22.79 114.327 24.21C114.327 25.63 113.987 26.92 113.307 28.08C112.627 29.22 111.697 30.13 110.517 30.81C109.357 31.47 108.047 31.8 106.587 31.8ZM106.557 28.14C107.297 28.14 107.947 27.98 108.507 27.66C109.087 27.32 109.527 26.86 109.827 26.28C110.147 25.68 110.307 25 110.307 24.24C110.307 23.48 110.147 22.81 109.827 22.23C109.507 21.65 109.067 21.2 108.507 20.88C107.947 20.54 107.297 20.37 106.557 20.37C105.837 20.37 105.197 20.54 104.637 20.88C104.077 21.2 103.637 21.65 103.317 22.23C102.997 22.81 102.837 23.48 102.837 24.24C102.837 25 102.997 25.68 103.317 26.28C103.637 26.86 104.077 27.32 104.637 27.66C105.197 27.98 105.837 28.14 106.557 28.14ZM126.607 31.5V23.19C126.607 22.33 126.337 21.63 125.797 21.09C125.257 20.55 124.557 20.28 123.697 20.28C123.137 20.28 122.637 20.4 122.197 20.64C121.757 20.88 121.407 21.22 121.147 21.66C120.907 22.1 120.787 22.61 120.787 23.19L119.257 22.41C119.257 21.27 119.497 20.28 119.977 19.44C120.477 18.58 121.157 17.91 122.017 17.43C122.897 16.95 123.887 16.71 124.987 16.71C126.047 16.71 126.997 16.98 127.837 17.52C128.677 18.04 129.337 18.73 129.817 19.59C130.297 20.43 130.537 21.34 130.537 22.32V31.5H126.607ZM116.857 31.5V17.01H120.787V31.5H116.857Z" fill="#14133B"/>
<defs>
<clipPath id="clip0_8019_3363">
<rect width="35" height="40" fill="white"/>
</clipPath>
</defs>
</svg>
