<svg width="117" height="30" viewBox="0 0 117 30" fill="none" xmlns="http://www.w3.org/2000/svg">
<g id="Pintrest">
<path id="Vector" d="M27.2359 10.7363C28.4908 10.7363 29.6942 9.70403 29.9039 8.4307C30.1515 7.1912 29.3008 6.15936 28.0473 6.15936C26.7939 6.15936 25.5895 7.19166 25.3766 8.4307C25.1318 9.70403 25.9473 10.7363 27.2359 10.7363ZM112.376 14.4201H115.182C115.567 14.4201 115.792 14.2659 115.879 13.911C116.013 13.3617 116.152 12.8133 116.293 12.2658C116.376 11.9466 116.188 11.7046 115.83 11.7046H113.061C113.26 10.9202 114.037 8.37398 114.037 6.71416C114.037 3.39908 111.188 0.578891 107.146 0.578891C102.58 0.578891 99.6102 3.60627 99.6102 7.86629C99.6102 9.10899 100.08 10.557 100.661 11.4558C100.41 11.4416 100.16 11.4348 99.9092 11.4348C96.4405 11.4348 94.2553 13.294 94.2553 15.9998C94.2553 18.5392 96.2813 19.5258 98.1883 20.1826C99.8823 20.7662 101.443 21.0374 101.443 22.3455C101.443 23.2273 100.584 23.7446 98.9043 23.7446C96.9112 23.7446 95.8156 22.8171 95.537 22.4653C95.7258 22.3185 96.0068 21.9695 96.0068 21.3882C96.0068 20.5745 95.4287 19.9104 94.3544 19.9104C93.4453 19.9104 92.6774 20.6427 92.4844 21.6064C91.0245 22.7864 89.4313 23.5511 87.1721 23.5511C84.9129 23.5511 83.7923 22.4077 83.7923 19.9745C84.3139 20.1313 85.672 20.3198 86.5699 20.3198C90.3372 20.3198 92.9047 18.6284 92.9047 15.241C92.9047 13.4198 91.2865 11.507 88.0853 11.507H88.0779C83.8673 11.507 81.509 14.1424 80.4791 17.0413C80.1907 16.9727 79.9015 16.9059 79.6122 16.8414C79.8427 16.1983 80.0079 15.4533 80.0079 14.6272C80.0079 13.1957 79.1104 11.507 76.7095 11.507C75.0372 11.507 73.4505 12.5896 72.3512 14.212C72.6248 13.1536 72.8062 12.4488 72.8178 12.4016C72.8895 12.1249 72.7729 11.8167 72.336 11.8167H69.8717C69.5204 11.8167 69.2727 11.9392 69.1727 12.3344C69.1056 12.5979 68.2591 15.8809 67.4347 19.0771C66.9154 21.0703 64.2298 23.5511 60.8537 23.5511C58.6283 23.5511 57.4748 22.3322 57.4748 19.8981C58.0571 20.1272 59.3545 20.3193 60.2515 20.3193C64.172 20.3193 66.5863 18.6279 66.5863 15.2406C66.5863 13.4193 64.9681 11.5066 61.7665 11.5066H61.7595C57.0184 11.5066 54.114 15.1455 53.6219 19.2715C53.4173 20.9866 51.9524 23.3417 50.3643 23.3417C49.5904 23.3417 49.159 22.8614 49.159 22.0464C49.159 21.3425 49.6608 19.6209 50.2106 17.463C50.3949 16.7412 50.6744 15.6403 50.9845 14.4201H53.5622C53.9459 14.4201 54.1709 14.2659 54.2579 13.911C54.3815 13.4006 54.6078 12.5096 54.6717 12.2658C54.7546 11.9466 54.5676 11.7046 54.2084 11.7046H51.6737C51.6737 11.7046 52.8406 7.10384 52.8684 6.98538C52.9809 6.51748 52.5847 6.24763 52.1699 6.33362C52.1699 6.33362 50.2106 6.71278 49.8473 6.78734C49.4821 6.86052 49.1988 7.05856 49.0664 7.5786L48.0287 11.7041H45.9935C45.6098 11.7041 45.3844 11.8587 45.2983 12.2128C45.1631 12.7621 45.0252 13.3105 44.8845 13.8584C44.8002 14.1776 44.9881 14.4196 45.3469 14.4196H47.3427C47.3284 14.4759 46.6216 17.1328 46.0504 19.5116C45.7815 20.6555 44.8803 23.3325 43.4042 23.3325C42.5225 23.3325 42.1503 22.893 42.1503 21.9508C42.1503 20.4666 43.6287 16.7509 43.6287 15.065C43.6287 12.8128 42.4058 11.5079 39.9008 11.5079C38.322 11.5079 36.6848 12.5155 35.9905 13.3996C35.9905 13.3996 36.2011 12.6756 36.2729 12.3975C36.3497 12.1034 36.19 11.8148 35.7998 11.8148H33.3508C32.8297 11.8148 32.6857 12.0902 32.6089 12.393C32.5783 12.5146 31.6956 15.939 30.8486 19.2262C30.2691 21.4774 28.8611 23.3581 27.3558 23.3581C26.5819 23.3581 26.2371 22.8783 26.2371 22.0628C26.2371 21.3585 26.6976 19.62 27.2471 17.463C27.9159 14.8363 28.5056 12.6733 28.5685 12.4209C28.6509 12.097 28.5042 11.8148 28.0821 11.8148H25.6182C25.172 11.8148 25.0124 12.0463 24.9184 12.3678C24.9184 12.3678 24.225 14.962 23.4905 17.8495C22.9572 19.9452 22.368 22.0798 22.368 23.0828C22.368 24.8725 23.1813 26.2218 25.4174 26.2218C27.1429 26.2218 28.5088 25.3569 29.5517 24.2551C29.3984 24.8515 29.3008 25.2288 29.2906 25.2672C29.2008 25.608 29.3096 25.9094 29.716 25.9094H32.2372C32.676 25.9094 32.8449 25.7351 32.9366 25.3569C33.025 24.996 34.9079 17.6766 34.9079 17.6766C35.4055 15.7103 36.6367 14.4086 38.3687 14.4086C39.1899 14.4086 39.9008 14.946 39.8184 15.9902C39.7268 17.1392 38.3248 21.2665 38.3248 23.0778C38.3248 24.449 38.8395 26.2227 41.4514 26.2227C43.2316 26.2227 44.5424 25.3793 45.4954 24.2907C45.8444 25.4461 46.7688 26.2227 48.4647 26.2227C51.2831 26.2227 52.9818 24.5711 53.9797 22.9117C54.8078 24.8391 56.7476 26.2218 59.5919 26.2218C62.4362 26.2218 64.7348 25.0143 66.3247 23.3723L65.829 25.2942C65.7388 25.6404 65.8915 25.9126 66.3025 25.9126H68.7978C69.1394 25.9126 69.3829 25.7411 69.4713 25.3861C69.5153 25.2119 69.8758 23.8352 70.385 21.8785C71.3589 18.1344 72.9243 14.2499 75.2765 14.2499C76.106 14.2499 76.4462 14.7082 76.4462 15.4299C76.4462 15.7702 76.3462 16.0643 76.2596 16.2221C75.1196 15.9985 74.2022 16.5546 74.2022 17.7575C74.2022 18.5415 75.0368 19.2536 76.1634 19.2536C77.0238 19.2536 77.7357 19.0451 78.3032 18.6677C78.8619 18.7816 79.4192 18.9014 79.9751 19.0268C79.8894 19.5697 79.8459 20.1181 79.8441 20.6678C79.8441 23.6728 82.0154 26.2213 85.908 26.2213C88.9583 26.2213 91.0514 25.1186 92.8579 23.7053C93.7263 25.1094 95.9193 26.2442 98.7965 26.2442C102.74 26.2442 104.976 24.218 104.976 21.5401C104.976 19.116 102.962 18.2241 100.886 17.4813C99.1978 16.8785 97.7897 16.551 97.7897 15.3719C97.7897 14.4054 98.5595 13.9636 99.8791 13.9636C100.735 13.9636 101.378 14.1456 101.721 14.2408C102.061 15.0828 102.766 16.0149 103.968 16.0149C104.985 16.0149 105.442 15.2196 105.442 14.4873C105.442 12.4026 101.928 12.1844 101.928 7.71353C101.928 4.93359 103.52 2.64029 106.817 2.64029C109.108 2.64029 110.604 4.07554 110.604 6.39262C110.604 8.30263 109.431 11.7032 109.431 11.7032H107.439C107.056 11.7032 106.829 11.8578 106.743 12.2118C106.608 12.7611 106.47 13.3095 106.328 13.8575C106.244 14.1767 106.432 14.4187 106.792 14.4187H108.737C108.737 14.4187 106.726 21.7491 106.726 23.0819C106.726 24.8716 107.746 26.2204 109.983 26.2204C113.147 26.2204 115.124 24.1887 115.984 21.2345C116.051 21.0058 115.92 20.8201 115.685 20.8201H114.478C114.237 20.8201 114.098 20.956 114.037 21.1888C113.764 22.2376 113.088 23.3408 111.758 23.3408C110.984 23.3408 110.553 22.8605 110.553 22.0455C110.553 21.3411 111.024 19.6923 111.605 17.4621C111.882 16.4 112.374 14.4187 112.374 14.4187L112.376 14.4201ZM87.4299 14.2947C88.5487 14.2947 89.08 15.0302 89.08 15.9065C89.08 17.3889 87.9164 18.2931 86.0964 18.2931C85.4452 18.2931 84.5347 18.1408 83.9969 17.9638C84.2227 16.6004 85.2216 14.2952 87.4295 14.2952L87.4299 14.2947ZM61.112 14.2947C62.3367 14.2947 62.7616 15.0302 62.7616 15.9065C62.7616 17.3889 61.5985 18.2931 59.7789 18.2931C59.1272 18.2931 58.2168 18.1408 57.6794 17.9638C57.9039 16.6004 58.7898 14.2952 61.112 14.2952V14.2947ZM12.696 0.546875C4.71256 0.546875 0.6875 6.20281 0.6875 10.9193C0.6875 13.7752 1.78171 16.3154 4.12843 17.2622C4.51306 17.4177 4.8579 17.2677 4.96945 16.8464C5.04721 16.5551 5.2305 15.8201 5.31243 15.5141C5.42537 15.0979 5.3814 14.9515 5.07082 14.5888C4.39411 13.8003 3.96179 12.779 3.96179 11.3328C3.96179 7.13677 7.13889 3.38033 12.2345 3.38033C16.747 3.38033 19.2261 6.10493 19.2261 9.74337C19.2261 14.5307 17.0821 18.5712 13.899 18.5712C12.1411 18.5712 10.8256 17.1346 11.2473 15.3728C11.7522 13.2693 12.7307 10.9993 12.7307 9.48129C12.7307 8.12242 11.9925 6.98858 10.4646 6.98858C8.66773 6.98858 7.22405 8.82541 7.22405 11.2861C7.22405 12.8535 7.76005 13.9133 7.76005 13.9133C7.76005 13.9133 5.92109 21.6123 5.59894 22.9607C4.95695 25.6459 5.5022 28.9377 5.54849 29.2702C5.5758 29.4673 5.83176 29.514 5.94794 29.3653C6.11365 29.1517 8.25346 26.5406 8.98155 23.9317C9.18752 23.193 10.1632 19.368 10.1632 19.368C10.7469 20.4684 12.453 21.4376 14.2679 21.4376C19.6691 21.4376 23.334 16.5716 23.334 10.0585C23.334 5.13346 19.1127 0.546875 12.6965 0.546875H12.696Z" fill="#14133B"/>
</g>
</svg>
